<svg width="21" height="20" viewBox="0 0 21 20" fill="none" xmlns="http://www.w3.org/2000/svg">
<path d="M15.2925 9.33166C15.2923 8.21362 14.848 7.14143 14.0575 6.35086C13.2669 5.56028 12.1947 5.11604 11.0767 5.11582M18.1825 9.03666C18.1825 8.15082 18.008 7.27366 17.669 6.45526C17.33 5.63687 16.8331 4.89327 16.2066 4.26693C15.5802 3.64058 14.8366 3.14377 14.0181 2.80485C13.1997 2.46593 12.3225 2.29155 11.4367 2.29166M10.9425 16.8475C10.6925 16.7333 10.4433 16.6192 10.1942 16.4833C8.97193 15.7928 7.84916 14.9394 6.85667 13.9467C5.57057 12.7355 4.51388 11.3019 3.7375 9.71499C3.32217 8.86259 3.04161 7.95091 2.90583 7.01249C2.72265 6.06428 2.82772 5.08293 3.2075 4.19499C3.4418 3.81331 3.72472 3.46371 4.04917 3.15499C4.18082 3.00769 4.34088 2.8885 4.51974 2.80459C4.6986 2.72067 4.89256 2.67376 5.09 2.66666C5.50083 2.72832 5.87333 2.94332 6.13 3.26916C6.69167 3.89332 7.29417 4.45499 7.88667 5.04749C8.12 5.24749 8.26583 5.53082 8.2925 5.83749C8.2825 6.09582 8.18333 6.34166 8.01167 6.53416C7.81417 6.78416 7.575 7.01249 7.34667 7.25082C7.2086 7.38381 7.10297 7.54678 7.03794 7.72711C6.97292 7.90745 6.95024 8.10032 6.97167 8.29082C7.115 8.73666 7.36083 9.14332 7.68917 9.47666C8.08309 10.0141 8.49584 10.5375 8.92667 11.0458C9.73019 11.9727 10.682 12.7598 11.7433 13.375C11.8903 13.486 12.064 13.556 12.2469 13.578C12.4297 13.5999 12.6151 13.573 12.7842 13.5C13.1367 13.3025 13.4508 13.0417 13.7092 12.7308C13.933 12.4586 14.2534 12.2833 14.6033 12.2417C14.915 12.2583 15.2083 12.3917 15.425 12.6167C15.705 12.855 15.9442 13.1358 16.2042 13.3958C16.4642 13.6558 16.6725 13.8433 16.8908 14.0817C17.1525 14.3128 17.3983 14.5589 17.6283 14.82C17.8067 15.0508 17.8925 15.3408 17.8675 15.6308C17.7746 15.9781 17.5746 16.2872 17.2958 16.5142C16.9033 16.9223 16.4264 17.2399 15.8985 17.4447C15.3705 17.6495 14.8043 17.7366 14.2392 17.7C13.095 17.6365 11.9739 17.3468 10.9425 16.8475Z" stroke="white" stroke-width="1.25" stroke-miterlimit="10" stroke-linecap="round"/>
</svg>
