<svg width="21" height="20" viewBox="0 0 21 20" fill="none" xmlns="http://www.w3.org/2000/svg">
<path d="M2.79169 11.6667H18.2084M8.09169 14.8175V16.0417C8.09169 16.4837 7.91609 16.9076 7.60353 17.2202C7.29097 17.5327 6.86705 17.7083 6.42502 17.7083H5.92502M12.9084 14.8175V16.0417C12.9084 16.4837 13.0839 16.9076 13.3965 17.2202C13.7091 17.5327 14.133 17.7083 14.575 17.7083H15.075M5.92335 17.7083H15.0767M2.79169 5.20832C2.79169 4.43478 3.09898 3.69291 3.64596 3.14593C4.19294 2.59895 4.93481 2.29166 5.70835 2.29166H15.2917C16.0652 2.29166 16.8071 2.59895 17.3541 3.14593C17.9011 3.69291 18.2084 4.43478 18.2084 5.20832V11.9008C18.2084 12.6744 17.9011 13.4162 17.3541 13.9632C16.8071 14.5102 16.0652 14.8175 15.2917 14.8175H5.70835C4.93481 14.8175 4.19294 14.5102 3.64596 13.9632C3.09898 13.4162 2.79169 12.6744 2.79169 11.9008V5.20832Z" stroke="white" stroke-width="1.25" stroke-linecap="round" stroke-linejoin="round"/>
</svg>
