<svg width="20" height="20" viewBox="0 0 20 20" fill="none" xmlns="http://www.w3.org/2000/svg">
<rect x="0.5" y="0.5" width="19" height="19" stroke="#74564B"/>
<path d="M9.99999 8.4379C9.13984 8.4379 8.43788 9.13985 8.43788 10C8.43788 10.8602 9.13984 11.5621 9.99999 11.5621C10.8602 11.5621 11.5621 10.8602 11.5621 10C11.5621 9.13985 10.8602 8.4379 9.99999 8.4379ZM14.6852 10C14.6852 9.35313 14.691 8.71212 14.6547 8.06641C14.6184 7.31641 14.4473 6.65079 13.8988 6.10235C13.3492 5.55274 12.6848 5.38282 11.9348 5.34649C11.2879 5.31016 10.6469 5.31602 10.0012 5.31602C9.35429 5.31602 8.71328 5.31016 8.06757 5.34649C7.31757 5.38282 6.65195 5.55391 6.10351 6.10235C5.5539 6.65196 5.38398 7.31641 5.34765 8.06641C5.31132 8.71329 5.31718 9.3543 5.31718 10C5.31718 10.6457 5.31132 11.2879 5.34765 11.9336C5.38398 12.6836 5.55507 13.3492 6.10351 13.8977C6.65312 14.4473 7.31757 14.6172 8.06757 14.6535C8.71445 14.6899 9.35546 14.684 10.0012 14.684C10.648 14.684 11.2891 14.6899 11.9348 14.6535C12.6848 14.6172 13.3504 14.4461 13.8988 13.8977C14.4484 13.3481 14.6184 12.6836 14.6547 11.9336C14.6922 11.2879 14.6852 10.6469 14.6852 10ZM9.99999 12.4035C8.66992 12.4035 7.59648 11.3301 7.59648 10C7.59648 8.66993 8.66992 7.59649 9.99999 7.59649C11.3301 7.59649 12.4035 8.66993 12.4035 10C12.4035 11.3301 11.3301 12.4035 9.99999 12.4035ZM12.5019 8.05938C12.1914 8.05938 11.9406 7.8086 11.9406 7.49805C11.9406 7.18751 12.1914 6.93673 12.5019 6.93673C12.8125 6.93673 13.0633 7.18751 13.0633 7.49805C13.0634 7.57179 13.0489 7.64483 13.0207 7.71297C12.9926 7.78112 12.9512 7.84304 12.8991 7.89518C12.8469 7.94732 12.785 7.98867 12.7169 8.01684C12.6487 8.04502 12.5757 8.05947 12.5019 8.05938Z" fill="#74564B"/>
</svg>
