<?xml version="1.0" encoding="UTF-8"?>
<svg id="Layer_3" data-name="Layer 3" xmlns="http://www.w3.org/2000/svg" viewBox="0 0 30 30">
  <defs>
    <style>
      .cls-1 {
        fill: #c93680;
      }

      .cls-1, .cls-2 {
        stroke-width: 0px;
      }

      .cls-2 {
        fill: #e068b5;
      }
    </style>
  </defs>
  <path class="cls-2" d="M23.49,2.82s-4-1.1-6.9,1.8h0c1.3,1.2,2.5,2.9,3.3,5.2,0,0,3.1,9.5-4.6,17.7h0c-.68.6-1.23.67-1.53.67.5,0,1.63.13,4.03-1.07,0,0,8.9-4,11.2-11.5,0,0,3.4-10.5-5.4-12.8h-.1Z"/>
  <path class="cls-2" d="M13.65,28.07c-.3-.4.86-1.46.86-1.46,1-1.4,1.61-3,1.61-3,2.01-5.1-.7-9.2-.7-9.2-1.61-2.6-.8-5.7-.8-5.7.6-1.9,1.4-3.3,2.31-4.2h0l.1.1h0C12.4.32,6.28,2.02,6.28,2.02,1.07,3.52.46,8.42.46,8.42c0,0-1.61,7.3,8.23,10.5,0,0,4.31,1.4,4.82,5.4,0,0,.2,1-.2,2.6,0,0-.28,1.11.45,1.28,0,0,0,.02.09-.01M14.01,28.32h0M13,9.52c0,.5-.4,1-1,1h-3.31v3.3c0,.5-.4,1-1,1h-1.1c-.5,0-1-.4-1-1v-3.3h-3.31c-.5,0-1-.4-1-1v-1.1c0-.5.4-1,1-1h3.31v-3.3c0-.5.4-1,1-1h1.1c.5,0,1,.4,1,1v3.3h3.31c.5,0,1,.4,1,1v1.1Z"/>
  <path class="cls-1" d="M15.52,27.51h0c8.17-8.33,4.88-17.86,4.88-17.86-.95-2.31-2.12-4.01-3.5-5.22h0c-.95.9-1.91,2.31-2.44,4.21,0,0-.85,3.11.85,5.72,0,0,2.86,4.11.74,9.23,0,0-.64,1.61-1.7,3.01,0,0-1.06,1.1-.74,1.51h0s.04.07.13.09h.03s.08.01.15.01c.32,0,.95,0,1.59-.7"/>
</svg>