<svg width="32" height="32" viewBox="0 0 32 32" fill="none" xmlns="http://www.w3.org/2000/svg">
<path opacity="0.2" fill-rule="evenodd" clip-rule="evenodd" d="M17.6 10.7552C20.304 5.91839 29.6 7.60639 29.6 14.5952C29.6 19.264 25.6 23.5269 17.6 27.384C9.59999 23.528 5.59999 19.2651 5.59999 14.5952C5.59999 7.60639 14.896 5.91839 17.6 10.7552Z" fill="#BB3049"/>
<path fill-rule="evenodd" clip-rule="evenodd" d="M8.9888 7.38878C6.696 7.94558 4.8 9.71198 4.8 12.7936C4.8 16.896 8.2704 20.9104 16 24.7104C23.7296 20.9104 27.2 16.896 27.2 12.7936C27.2 9.71358 25.304 7.94558 23.0112 7.38878C20.6576 6.81598 18.016 7.55358 16.6448 9.42078C16.5705 9.52198 16.4734 9.60426 16.3614 9.66098C16.2493 9.71769 16.1256 9.74725 16 9.74725C15.8744 9.74725 15.7506 9.71769 15.6386 9.66098C15.5266 9.60426 15.4295 9.52198 15.3552 9.42078C13.984 7.55358 11.3424 6.81598 8.9888 7.38878ZM16 7.72478C14.096 5.81598 11.1488 5.21598 8.6112 5.83198C5.704 6.54078 3.2 8.87358 3.2 12.7936C3.2 17.9776 7.6256 22.4448 15.6528 26.32C15.7611 26.3722 15.8798 26.3992 16 26.3992C16.1202 26.3992 16.2389 26.3722 16.3472 26.32C24.3744 22.4448 28.8 17.9792 28.8 12.7936C28.8 8.87358 26.296 6.54078 23.3888 5.83358C20.8512 5.21758 17.9056 5.81918 16 7.72478Z" fill="#BB3049"/>
</svg>
