<svg width="20" height="20" viewBox="0 0 20 20" fill="none" xmlns="http://www.w3.org/2000/svg">
<rect x="0.5" y="0.5" width="19" height="19" stroke="#74564B"/>
<path d="M15.0309 7.46992C14.9711 7.24731 14.8539 7.0443 14.691 6.88121C14.5281 6.71813 14.3253 6.60068 14.1027 6.54063C13.2836 6.32031 10 6.32031 10 6.32031C10 6.32031 6.71641 6.32031 5.89727 6.53945C5.67463 6.59931 5.47167 6.71669 5.30876 6.87981C5.14584 7.04293 5.02872 7.24604 4.96914 7.46875C4.75 8.28906 4.75 10 4.75 10C4.75 10 4.75 11.7109 4.96914 12.5301C5.08984 12.9824 5.44609 13.3387 5.89727 13.4594C6.71641 13.6797 10 13.6797 10 13.6797C10 13.6797 13.2836 13.6797 14.1027 13.4594C14.5551 13.3387 14.9102 12.9824 15.0309 12.5301C15.25 11.7109 15.25 10 15.25 10C15.25 10 15.25 8.28906 15.0309 7.46992ZM8.95703 11.5703V8.42969L11.6758 9.98828L8.95703 11.5703Z" fill="#74564B"/>
</svg>
