<?xml version="1.0" encoding="UTF-8"?>
<svg id="Layer_2" data-name="Layer 2" xmlns="http://www.w3.org/2000/svg" viewBox="0 0 133.36 26.71">
  <defs>
    <style>
      .cls-1 {
        fill: #62061f;
      }

      .cls-1, .cls-2, .cls-3, .cls-4 {
        stroke-width: 0px;
      }

      .cls-2 {
        fill: #939598;
      }

      .cls-3 {
        fill-rule: evenodd;
      }

      .cls-3, .cls-4 {
        fill: #a11c33;
      }
    </style>
  </defs>
  <g id="Layer_1-2" data-name="Layer 1">
    <g>
      <g>
        <path class="cls-4" d="M23.53,1.05s-3.98-1.1-6.94,1.79c0,0-.01.01-.02.02,0,0,.02.02.03.03,1.29,1.2,2.45,2.87,3.33,5.19,0,0,3.11,9.52-4.63,17.73l-.07.07c-.59.68-1.08.82-1.4.81.46.04,1.52-.13,3.9-1.3,0,0,8.86-3.95,11.24-11.54,0,0,3.44-10.52-5.44-12.81Z"/>
        <path class="cls-1" d="M15.23,25.89l.07-.07c7.73-8.22,4.63-17.73,4.63-17.73-.87-2.32-2.04-3.99-3.33-5.19,0,0-.02-.02-.03-.03,0,0,0,0-.01.01-.94.94-1.78,2.28-2.34,4.2,0,0-.79,3.1.82,5.7,0,0,2.73,4.12.74,9.22,0,0-.58,1.63-1.62,3.03,0,0-.97,1.14-.7,1.53l.02.02s.03.06.18.1c.02,0,.04,0,.06.01.03,0,.07.01.11.02.32,0,.81-.13,1.4-.81Z"/>
        <path class="cls-4" d="M16.56,2.88s0,0,.01-.01c0,0,0,0-.01-.01C12-1.36,5.94.34,5.94.34.69,1.83.1,6.71.1,6.71c0,0-1.63,7.3,8.23,10.49,0,0,4.29,1.4,4.78,5.38,0,0,.17.97-.16,2.59,0,0-.28.97.5,1.44,0,0,.07.04.19.07.04,0,.08.02.12.02.02,0,.04,0,.06,0-.04,0-.08,0-.11-.02-.02,0-.04,0-.06-.01-.14-.04-.18-.1-.18-.1l-.02-.02c-.27-.39.7-1.53.7-1.53,1.04-1.39,1.62-3.03,1.62-3.03,2-5.1-.74-9.22-.74-9.22-1.61-2.6-.82-5.7-.82-5.7.56-1.92,1.4-3.27,2.34-4.2ZM12.65,7.84c0,.53-.43.97-.97.97h-3.27v3.27c0,.53-.43.97-.97.97h-1.07c-.53,0-.97-.43-.97-.97v-3.27h-3.27c-.53,0-.97-.43-.97-.97v-1.07c0-.53.43-.97.97-.97h3.27v-3.27c0-.53.43-.97.97-.97h1.07c.53,0,.97.43.97.97v3.27h3.27c.53,0,.97.43.97.97v1.07Z"/>
      </g>
      <g>
        <path class="cls-3" d="M68.57,8.32c0-.61-.12-1.16-.76-1.44-.99-.42-1.91.17-1.92,1.28v5.48c.03,1.14-.68,1.53-1.53,1.56-1,.04-1.53-.53-1.53-1.55,0-1.75.03-3.5,0-5.25-.03-1.67.57-3,2.1-3.72,1.61-.76,3.23-.75,4.74.32.12.09.24.18.36.26,2.2-1.4,4.22-1.45,5.91-.12.84.66,1.33,1.53,1.34,2.61.02,2.03,0,4.06,0,6.09,0,.84-.58,1.37-1.47,1.38-.93,0-1.55-.52-1.56-1.39v-5.63c0-1.16-.81-1.58-1.89-1.31-.61.22-.75.68-.75,1.26v5.4c.06,1.5-1.13,1.85-2.2,1.54-.6-.18-.86-.63-.85-1.28v-5.48Z"/>
        <path class="cls-3" d="M51.95,8.32c0-.61-.12-1.16-.76-1.44-.99-.42-1.91.17-1.92,1.28v5.48c.03,1.14-.68,1.53-1.53,1.56-1,.04-1.53-.53-1.53-1.55,0-1.75.03-3.5,0-5.25-.03-1.67.57-3,2.11-3.72,1.61-.76,3.23-.75,4.74.32.12.09.24.18.36.26,2.2-1.4,4.22-1.45,5.91-.12.84.66,1.33,1.53,1.34,2.61.02,2.03,0,4.06,0,6.09,0,.84-.58,1.37-1.47,1.38-.93,0-1.55-.52-1.56-1.39v-5.63c0-1.16-.81-1.58-1.88-1.31-.61.22-.75.68-.75,1.26v5.4c.06,1.5-1.13,1.85-2.2,1.54-.6-.18-.86-.63-.85-1.28v-5.48Z"/>
        <path class="cls-3" d="M119.52,10.71c.02,1.48.84,2.24,2.27,2.04.89-.13,1.75-.46,2.61-.73,1.16-.36,2.07.22,1.95,1.32-.05.44-.38.85-.7.99-2.08.96-4.24,1.33-6.46.51-1.68-.62-2.69-2.03-2.74-3.82-.02-.86-.02-1.72,0-2.58.05-1.81,1.07-3.26,2.8-3.84,2.12-.71,4.19-.6,6.06.71,1.22.91,1.64,2.22,1.46,3.7-.12,1.01-1.03,1.68-2.28,1.7-1.37.03-2.73.01-4.1.01h-.87ZM123.8,8.51c-.06-1.37-.73-1.95-2.18-1.93-1.41.01-2.04.59-2.07,1.93h4.25Z"/>
        <path class="cls-3" d="M36.89,10.71c.02,1.48.85,2.24,2.27,2.04.89-.13,1.75-.46,2.61-.73,1.16-.36,2.07.22,1.95,1.32-.05.44-.38.85-.7.99-2.08.96-4.24,1.33-6.46.51-1.68-.62-2.69-2.03-2.74-3.82-.02-.86-.02-1.72,0-2.58.05-1.81,1.07-3.26,2.8-3.84,2.12-.71,4.19-.6,6.06.71,1.22.91,1.64,2.22,1.46,3.7-.12,1.01-1.03,1.68-2.28,1.7-1.37.03-2.74.01-4.1.01h-.87ZM41.17,8.51c-.06-1.37-.74-1.95-2.18-1.93-1.41.01-2.04.59-2.07,1.93h4.25Z"/>
        <path class="cls-3" d="M86.37,8.12c.06-.83-.34-1.46-1.2-1.52-.96-.06-1.87.06-2.91.22-.42.07-.84.21-1.26.21-.62.01-1.07-.31-1.19-.95-.13-.66.13-1.17.79-1.36,2.07-.6,4.17-.91,6.25-.1,1.56.6,2.48,1.76,2.57,3.45.05,1.09.02,2.18-.03,3.27-.07,1.81-.98,3-2.68,3.55-1.69.54-3.4.51-5.08-.03-1.89-.61-2.74-1.98-2.48-3.89.24-1.77,1.4-2.76,3.44-2.85,1.23-.05,2.52,0,3.76,0ZM86.44,10.27c-1.18.02-2.18-.03-3.27.02-.62.03-.96.52-1.01,1.15-.05.57.2,1.03.73,1.32.8.43,1.67.41,2.43.06.43-.21.84-.6.99-1.19,0,0,.16-.56.13-1.35Z"/>
        <path class="cls-3" d="M101.76,13.8c-.01.97-.57,1.48-1.55,1.47-.99,0-1.47-.49-1.48-1.5v-5.32c-.06-1.13-.82-1.63-1.96-1.68-1.27-.05-1.92.41-2.15,1.53-.07.34-.1.7-.11,1.05v4.34c-.01.98-.54,1.52-1.48,1.53-1,.01-1.54-.53-1.55-1.54v-5.1c.09-2.29,1.14-3.71,3.36-4.15,1.15-.23,2.44-.24,3.59,0,2.2.45,3.24,1.87,3.32,4.27v5.1Z"/>
        <path class="cls-3" d="M103.81,5.71c.01-.97.56-1.48,1.53-1.47.99,0,1.47.49,1.48,1.5v5.32c.06,1.13.82,1.63,1.96,1.68,1.27.05,1.92-.41,2.16-1.53.07-.34.1-.7.1-1.05v-4.34c0-.98.54-1.52,1.48-1.53,1-.01,1.55.53,1.56,1.54v5.1c-.1,2.28-1.15,3.71-3.37,4.15-1.16.23-2.44.24-3.59,0-2.2-.45-3.23-1.87-3.32-4.27v-5.1Z"/>
        <path class="cls-3" d="M132.04,11.23c0,.69.16,1.23.77,1.61.59.37.66.95.41,1.53-.25.58-.73.88-1.4.81-1.52-.16-2.77-1.63-2.8-3.37V1.47c.01-1,.46-1.46,1.47-1.47,1.05-.01,1.55.46,1.55,1.51v9.72Z"/>
      </g>
      <g>
        <path class="cls-2" d="M33.95,24.46l1.73-4.95h1.12l1.76,4.95h-.97l-.88-2.58c-.09-.27-.18-.57-.27-.9-.09-.33-.2-.71-.31-1.13h.2c-.11.43-.21.81-.31,1.14s-.18.63-.26.89l-.86,2.58h-.96ZM34.96,23.24v-.72h2.59v.72h-2.59Z"/>
        <path class="cls-2" d="M40.4,24.53c-.29,0-.56-.08-.79-.23s-.41-.37-.54-.65c-.13-.28-.2-.62-.2-1.02s.07-.75.2-1.03c.13-.28.32-.5.55-.64.23-.15.49-.22.78-.22.21,0,.38.03.52.1.14.07.25.15.34.25.09.1.16.2.21.29h.03v-1.87h.86v4.95h-.84v-.58h-.04c-.05.1-.12.2-.21.3s-.2.18-.34.25c-.14.07-.31.1-.51.1ZM40.63,23.82c.19,0,.35-.05.48-.15.13-.1.23-.24.3-.42s.1-.39.1-.62-.03-.45-.1-.62-.17-.31-.3-.41-.29-.15-.48-.15-.35.05-.48.15c-.13.1-.23.24-.3.42-.07.18-.1.38-.1.62s.03.44.1.62c.07.18.17.32.3.42.13.1.29.15.48.15Z"/>
        <path class="cls-2" d="M44.5,24.51c-.25,0-.47-.05-.66-.16-.19-.11-.34-.27-.44-.48-.11-.21-.16-.46-.16-.76v-2.32h.86v2.19c0,.25.06.45.19.59.13.14.31.21.53.21.15,0,.29-.03.41-.1.12-.06.21-.16.28-.29s.1-.28.1-.47v-2.13h.86v3.67h-.82v-.91s.08,0,.08,0c-.1.32-.26.56-.46.72-.2.16-.46.24-.75.24Z"/>
        <path class="cls-2" d="M48.19,19.51v4.95h-.86v-4.95h.86Z"/>
        <path class="cls-2" d="M50.9,20.79v.67h-2.12v-.67h2.12ZM49.33,19.89h.86v3.53c0,.13.03.23.08.29.06.06.15.09.28.09.04,0,.1,0,.16,0,.07,0,.12-.01.16-.02l.11.67c-.09.02-.18.04-.28.05-.1,0-.19.02-.29.02-.36,0-.63-.09-.81-.26-.19-.17-.28-.42-.28-.74v-3.61Z"/>
        <path class="cls-2" d="M53.27,24.46v-4.95h1.32l.94,2.56c.03.1.07.22.11.36.04.15.08.3.13.47.04.17.09.33.12.49.04.16.07.3.1.41h-.19c.03-.11.06-.25.1-.41.04-.16.08-.32.12-.49.04-.17.09-.32.13-.47.04-.15.08-.27.11-.37l.93-2.56h1.32v4.95h-.88v-2.5c0-.11,0-.23,0-.38s0-.31.01-.48,0-.34.01-.51,0-.34,0-.49h.07c-.05.17-.1.35-.15.53-.05.18-.1.36-.15.52s-.1.32-.14.47-.08.26-.11.35l-.92,2.5h-.74l-.93-2.5c-.03-.09-.07-.21-.12-.35-.04-.14-.09-.29-.14-.46-.05-.17-.1-.34-.16-.52-.05-.18-.11-.36-.16-.53h.09c0,.15,0,.31,0,.48,0,.17,0,.34.01.51,0,.17,0,.33,0,.49s0,.28,0,.39v2.5h-.87Z"/>
        <path class="cls-2" d="M61.06,24.54c-.37,0-.69-.08-.95-.24-.27-.16-.47-.38-.62-.66-.14-.28-.22-.62-.22-1s.07-.7.21-.99c.14-.29.34-.51.6-.67s.56-.24.91-.24c.23,0,.45.04.66.11.2.08.39.19.54.35.16.15.28.35.37.58.09.23.13.51.13.82v.26h-3.04v-.58h2.61l-.4.17c0-.21-.03-.39-.1-.54-.07-.16-.16-.28-.29-.36-.13-.09-.29-.13-.47-.13s-.35.04-.48.13c-.13.09-.23.2-.3.35-.07.15-.1.32-.1.5v.4c0,.23.04.42.12.58.08.16.19.28.33.36.14.08.31.12.5.12.13,0,.24-.02.35-.06s.19-.09.27-.16c.07-.07.13-.16.17-.26l.79.13c-.06.21-.16.39-.3.54-.15.16-.33.28-.55.36s-.47.13-.74.13Z"/>
        <path class="cls-2" d="M64.77,24.53c-.29,0-.56-.08-.79-.23s-.41-.37-.54-.65c-.13-.28-.2-.62-.2-1.02s.07-.75.2-1.03c.13-.28.32-.5.55-.64.23-.15.49-.22.78-.22.21,0,.38.03.52.1.14.07.25.15.34.25.09.1.16.2.21.29h.03v-1.87h.86v4.95h-.84v-.58h-.04c-.05.1-.12.2-.21.3s-.2.18-.34.25c-.14.07-.31.1-.51.1ZM65,23.82c.19,0,.35-.05.48-.15.13-.1.23-.24.3-.42s.1-.39.1-.62-.03-.45-.1-.62-.17-.31-.3-.41-.29-.15-.48-.15-.35.05-.48.15c-.13.1-.23.24-.3.42-.07.18-.1.38-.1.62s.03.44.1.62c.07.18.17.32.3.42.13.1.29.15.48.15Z"/>
        <path class="cls-2" d="M68.03,20.27c-.14,0-.26-.05-.36-.14-.1-.09-.15-.2-.15-.34s.05-.24.15-.34c.1-.09.22-.14.36-.14s.26.05.36.14.15.2.15.34-.05.24-.15.34c-.1.09-.22.14-.36.14ZM67.6,24.46v-3.67h.86v3.67h-.86Z"/>
        <path class="cls-2" d="M70.93,24.54c-.36,0-.67-.08-.93-.24s-.47-.38-.61-.67-.22-.62-.22-.99.07-.71.22-1,.35-.51.61-.67.57-.24.93-.24c.21,0,.41.03.58.08.18.06.34.14.48.24.14.1.26.23.35.38s.16.31.19.5l-.81.13c-.02-.1-.05-.18-.1-.26s-.1-.14-.17-.2c-.07-.06-.14-.1-.23-.13-.09-.03-.18-.05-.29-.05-.2,0-.36.05-.49.16s-.23.25-.3.43c-.07.18-.1.39-.1.62s.03.43.1.61c.07.18.17.32.3.43s.3.16.49.16c.11,0,.2-.02.29-.05.09-.03.16-.08.23-.13.07-.06.12-.13.17-.21.05-.08.08-.17.1-.27l.81.13c-.03.19-.1.36-.19.51-.09.15-.21.28-.35.39s-.3.19-.48.25c-.18.06-.38.09-.59.09Z"/>
        <path class="cls-2" d="M74.35,24.53c-.23,0-.45-.04-.63-.13-.19-.08-.33-.21-.44-.37s-.16-.37-.16-.61c0-.21.04-.38.12-.52.08-.13.18-.24.32-.32.13-.08.29-.14.45-.18s.34-.07.52-.09c.22-.02.39-.05.53-.06.13-.02.23-.05.29-.09.06-.04.09-.1.09-.18v-.02c0-.12-.02-.22-.07-.3-.05-.08-.12-.15-.22-.19-.1-.04-.21-.07-.36-.07s-.26.02-.37.06c-.1.04-.19.1-.26.17-.06.07-.11.15-.14.24l-.8-.13c.06-.22.16-.41.31-.56.15-.15.33-.26.54-.34.21-.08.45-.11.71-.11.19,0,.37.02.55.07.18.04.34.12.48.21.14.1.26.23.34.39.09.16.13.36.13.59v2.46h-.83v-.51h-.03c-.05.1-.13.2-.22.29s-.21.16-.35.21c-.14.05-.31.08-.5.08ZM74.57,23.89c.18,0,.33-.03.46-.1s.23-.16.3-.28.1-.24.1-.38v-.43s-.08.04-.14.06c-.06.02-.14.04-.22.05-.08.01-.16.03-.24.04-.08.01-.15.02-.21.03-.13.02-.24.05-.34.09s-.18.1-.24.17c-.06.07-.09.16-.09.27,0,.1.03.19.08.26s.13.12.22.16c.09.04.2.05.33.05Z"/>
        <path class="cls-2" d="M78.02,19.51v4.95h-.86v-4.95h.86Z"/>
        <path class="cls-2" d="M81.49,19.51v4.95h-.89v-4.95h.89ZM82.28,24.46h-1.25v-.76h1.21c.35,0,.64-.06.87-.19.23-.13.41-.32.52-.57.12-.25.17-.57.17-.95s-.06-.69-.17-.94-.29-.44-.52-.57c-.23-.13-.51-.19-.85-.19h-1.26v-.76h1.31c.49,0,.91.1,1.27.3.35.2.62.48.82.85.19.37.29.81.29,1.32s-.1.96-.29,1.33-.46.65-.82.85c-.36.2-.79.3-1.29.3Z"/>
        <path class="cls-2" d="M86.49,24.53c-.23,0-.45-.04-.63-.13-.19-.08-.33-.21-.44-.37s-.16-.37-.16-.61c0-.21.04-.38.12-.52.08-.13.18-.24.32-.32.13-.08.29-.14.45-.18s.34-.07.52-.09c.22-.02.39-.05.53-.06.13-.02.23-.05.29-.09.06-.04.09-.1.09-.18v-.02c0-.12-.02-.22-.07-.3-.05-.08-.12-.15-.22-.19-.1-.04-.21-.07-.36-.07s-.26.02-.37.06c-.1.04-.19.1-.26.17-.06.07-.11.15-.14.24l-.8-.13c.06-.22.16-.41.31-.56.15-.15.33-.26.54-.34.21-.08.45-.11.71-.11.19,0,.37.02.55.07.18.04.34.12.48.21.14.1.26.23.34.39.09.16.13.36.13.59v2.46h-.83v-.51h-.03c-.05.1-.13.2-.22.29s-.21.16-.35.21c-.14.05-.31.08-.5.08ZM86.71,23.89c.18,0,.33-.03.46-.1s.23-.16.3-.28.1-.24.1-.38v-.43s-.08.04-.14.06c-.06.02-.14.04-.22.05-.08.01-.16.03-.24.04-.08.01-.15.02-.21.03-.13.02-.24.05-.34.09s-.18.1-.24.17c-.06.07-.09.16-.09.27,0,.1.03.19.08.26s.13.12.22.16c.09.04.2.05.33.05Z"/>
        <path class="cls-2" d="M89.16,25.8l.16-.67.17.02c.12.03.22.03.31.01s.17-.06.23-.13.11-.17.14-.3l.07-.26-1.39-3.67h.92l.67,1.98c.08.23.14.46.19.68.05.23.11.46.17.69h-.23c.06-.23.12-.47.18-.7.06-.23.13-.46.21-.68l.69-1.98h.91l-1.59,4.17c-.08.19-.17.36-.28.5s-.24.24-.4.31-.34.1-.55.1c-.12,0-.22,0-.32-.02-.1-.01-.18-.03-.25-.05Z"/>
        <path class="cls-2" d="M96.94,24.53c-.44,0-.83-.1-1.17-.31-.34-.2-.62-.5-.81-.88-.2-.38-.3-.83-.3-1.36s.1-.99.3-1.37.47-.67.81-.88.73-.31,1.17-.31c.27,0,.53.04.77.12.24.08.45.19.63.34.18.15.34.33.46.54.12.21.2.46.24.73h-.89c-.03-.15-.08-.28-.15-.4-.07-.11-.16-.21-.26-.29-.11-.08-.22-.14-.36-.18-.13-.04-.27-.06-.42-.06-.28,0-.52.07-.73.21-.21.14-.38.34-.49.6-.12.26-.18.58-.18.95s.06.69.18.95c.12.26.28.46.49.59.21.13.45.2.73.2.15,0,.29-.02.42-.06s.25-.1.35-.18c.1-.08.19-.18.27-.29s.12-.25.15-.4h.89c-.04.25-.11.47-.22.68-.11.21-.26.39-.44.55s-.39.28-.63.37c-.24.09-.51.13-.8.13Z"/>
        <path class="cls-2" d="M100.82,24.53c-.23,0-.45-.04-.63-.13-.19-.08-.33-.21-.44-.37s-.16-.37-.16-.61c0-.21.04-.38.12-.52.08-.13.18-.24.32-.32.13-.08.29-.14.45-.18s.34-.07.52-.09c.22-.02.39-.05.53-.06.13-.02.23-.05.29-.09.06-.04.09-.1.09-.18v-.02c0-.12-.02-.22-.07-.3-.05-.08-.12-.15-.22-.19-.1-.04-.21-.07-.36-.07s-.26.02-.37.06c-.1.04-.19.1-.26.17-.06.07-.11.15-.14.24l-.8-.13c.06-.22.16-.41.31-.56.15-.15.33-.26.54-.34.21-.08.45-.11.71-.11.19,0,.37.02.55.07.18.04.34.12.48.21.14.1.26.23.34.39.09.16.13.36.13.59v2.46h-.83v-.51h-.03c-.05.1-.13.2-.22.29s-.21.16-.35.21c-.14.05-.31.08-.5.08ZM101.04,23.89c.18,0,.33-.03.46-.1s.23-.16.3-.28.1-.24.1-.38v-.43s-.08.04-.14.06c-.06.02-.14.04-.22.05-.08.01-.16.03-.24.04-.08.01-.15.02-.21.03-.13.02-.24.05-.34.09s-.18.1-.24.17c-.06.07-.09.16-.09.27,0,.1.03.19.08.26s.13.12.22.16c.09.04.2.05.33.05Z"/>
        <path class="cls-2" d="M103.63,24.46v-3.67h.83v.61h.03c.07-.21.18-.38.34-.49.16-.11.35-.17.56-.17.05,0,.1,0,.16,0s.1,0,.14.02v.78s-.09-.02-.17-.03c-.08,0-.16-.01-.23-.01-.15,0-.29.03-.41.1-.12.07-.22.16-.29.28s-.11.26-.11.43v2.14h-.86Z"/>
        <path class="cls-2" d="M107.77,24.54c-.37,0-.69-.08-.95-.24-.27-.16-.47-.38-.62-.66-.14-.28-.22-.62-.22-1s.07-.7.21-.99c.14-.29.34-.51.6-.67s.56-.24.91-.24c.23,0,.45.04.66.11.2.08.39.19.54.35.16.15.28.35.37.58.09.23.13.51.13.82v.26h-3.04v-.58h2.61l-.4.17c0-.21-.03-.39-.1-.54-.07-.16-.16-.28-.29-.36-.13-.09-.29-.13-.47-.13s-.35.04-.48.13c-.13.09-.23.2-.3.35-.07.15-.1.32-.1.5v.4c0,.23.04.42.12.58.08.16.19.28.33.36.14.08.31.12.5.12.13,0,.24-.02.35-.06s.19-.09.27-.16c.07-.07.13-.16.17-.26l.79.13c-.06.21-.16.39-.3.54-.15.16-.33.28-.55.36s-.47.13-.74.13Z"/>
        <path class="cls-2" d="M113.95,24.53c-.44,0-.83-.1-1.17-.31-.34-.2-.62-.5-.81-.88-.2-.38-.3-.83-.3-1.36s.1-.99.3-1.37.47-.67.81-.88.73-.31,1.17-.31c.27,0,.53.04.77.12.24.08.45.19.63.34.18.15.34.33.46.54.12.21.2.46.24.73h-.89c-.03-.15-.08-.28-.15-.4-.07-.11-.16-.21-.26-.29-.11-.08-.22-.14-.36-.18-.13-.04-.27-.06-.42-.06-.28,0-.52.07-.73.21-.21.14-.38.34-.49.6-.12.26-.18.58-.18.95s.06.69.18.95c.12.26.28.46.49.59.21.13.45.2.73.2.15,0,.29-.02.42-.06s.25-.1.35-.18c.1-.08.19-.18.27-.29s.12-.25.15-.4h.89c-.04.25-.11.47-.22.68-.11.21-.26.39-.44.55s-.39.28-.63.37c-.24.09-.51.13-.8.13Z"/>
        <path class="cls-2" d="M118.4,24.54c-.37,0-.69-.08-.95-.24-.27-.16-.47-.38-.62-.66-.14-.28-.22-.62-.22-1s.07-.7.21-.99c.14-.29.34-.51.6-.67s.56-.24.91-.24c.23,0,.45.04.66.11.2.08.39.19.54.35.16.15.28.35.37.58.09.23.13.51.13.82v.26h-3.04v-.58h2.61l-.4.17c0-.21-.03-.39-.1-.54-.07-.16-.16-.28-.29-.36-.13-.09-.29-.13-.47-.13s-.35.04-.48.13c-.13.09-.23.2-.3.35-.07.15-.1.32-.1.5v.4c0,.23.04.42.12.58.08.16.19.28.33.36.14.08.31.12.5.12.13,0,.24-.02.35-.06s.19-.09.27-.16c.07-.07.13-.16.17-.26l.79.13c-.06.21-.16.39-.3.54-.15.16-.33.28-.55.36s-.47.13-.74.13Z"/>
        <path class="cls-2" d="M121.6,22.33v2.13h-.86v-3.67h.82v.91s-.08,0-.08,0c.1-.32.26-.56.46-.72s.46-.24.76-.24c.25,0,.47.05.66.16s.34.27.44.48c.1.21.16.46.16.76v2.32h-.86v-2.19c0-.25-.06-.45-.19-.59s-.31-.21-.53-.21c-.15,0-.29.03-.4.1-.12.07-.21.16-.28.29-.07.13-.1.28-.1.47Z"/>
        <path class="cls-2" d="M126.6,20.79v.67h-2.12v-.67h2.12ZM125.02,19.89h.86v3.53c0,.13.03.23.08.29.06.06.15.09.28.09.04,0,.1,0,.16,0,.07,0,.12-.01.16-.02l.11.67c-.09.02-.18.04-.28.05-.1,0-.19.02-.29.02-.36,0-.63-.09-.81-.26-.19-.17-.28-.42-.28-.74v-3.61Z"/>
        <path class="cls-2" d="M128.81,24.54c-.37,0-.69-.08-.95-.24-.27-.16-.47-.38-.62-.66-.14-.28-.22-.62-.22-1s.07-.7.21-.99c.14-.29.34-.51.6-.67s.56-.24.91-.24c.23,0,.45.04.66.11.2.08.39.19.54.35.16.15.28.35.37.58.09.23.13.51.13.82v.26h-3.04v-.58h2.61l-.4.17c0-.21-.03-.39-.1-.54-.07-.16-.16-.28-.29-.36-.13-.09-.29-.13-.47-.13s-.35.04-.48.13c-.13.09-.23.2-.3.35-.07.15-.1.32-.1.5v.4c0,.23.04.42.12.58.08.16.19.28.33.36.14.08.31.12.5.12.13,0,.24-.02.35-.06s.19-.09.27-.16c.07-.07.13-.16.17-.26l.79.13c-.06.21-.16.39-.3.54-.15.16-.33.28-.55.36s-.47.13-.74.13Z"/>
        <path class="cls-2" d="M131.15,24.46v-3.67h.83v.61h.03c.07-.21.18-.38.34-.49.16-.11.35-.17.56-.17.05,0,.1,0,.16,0s.1,0,.14.02v.78s-.09-.02-.17-.03c-.08,0-.16-.01-.23-.01-.15,0-.29.03-.41.1-.12.07-.22.16-.29.28s-.11.26-.11.43v2.14h-.86Z"/>
      </g>
    </g>
  </g>
</svg>