<?xml version="1.0" encoding="UTF-8"?>
<svg id="Layer_2" data-name="Layer 2" xmlns="http://www.w3.org/2000/svg" viewBox="0 0 133.36 26.71">
  <defs>
    <style>
      .cls-1 {
        letter-spacing: 0em;
      }

      .cls-2 {
        letter-spacing: -.02em;
      }

      .cls-3 {
        letter-spacing: .01em;
      }

      .cls-4 {
        fill: #62061f;
      }

      .cls-4, .cls-5, .cls-6 {
        stroke-width: 0px;
      }

      .cls-7 {
        letter-spacing: -.02em;
      }

      .cls-8 {
        fill: #939598;
        font-family: Inter18pt-SemiBold, 'Inter 18pt';
        font-size: 6.8px;
        font-weight: 600;
      }

      .cls-5 {
        fill-rule: evenodd;
      }

      .cls-5, .cls-6 {
        fill: #a11c33;
      }

      .cls-9 {
        letter-spacing: 0em;
      }

      .cls-10 {
        letter-spacing: 0em;
      }

      .cls-11 {
        letter-spacing: -.02em;
      }
    </style>
  </defs>
  <g id="Layer_1-2" data-name="Layer 1">
    <g>
      <g>
        <path class="cls-6" d="M23.53,1.05s-3.98-1.1-6.94,1.79c0,0-.01.01-.02.02,0,0,.02.02.03.03,1.29,1.2,2.45,2.87,3.33,5.19,0,0,3.11,9.52-4.63,17.73l-.07.07c-.59.68-1.08.82-1.4.81.46.04,1.52-.13,3.9-1.3,0,0,8.86-3.95,11.24-11.54,0,0,3.44-10.52-5.44-12.81Z"/>
        <path class="cls-4" d="M15.23,25.89l.07-.07c7.73-8.22,4.63-17.73,4.63-17.73-.87-2.32-2.04-3.99-3.33-5.19,0,0-.02-.02-.03-.03,0,0,0,0-.01.01-.94.94-1.78,2.28-2.34,4.2,0,0-.79,3.1.82,5.7,0,0,2.73,4.12.74,9.22,0,0-.58,1.63-1.62,3.03,0,0-.97,1.14-.7,1.53l.02.02s.03.06.18.1c.02,0,.04,0,.06.01.03,0,.07.01.11.02.32,0,.81-.13,1.4-.81Z"/>
        <path class="cls-6" d="M16.56,2.88s0,0,.01-.01c0,0,0,0-.01-.01C12-1.36,5.94.34,5.94.34.69,1.83.1,6.71.1,6.71c0,0-1.63,7.3,8.23,10.49,0,0,4.29,1.4,4.78,5.38,0,0,.17.97-.16,2.59,0,0-.28.97.5,1.44,0,0,.07.04.19.07.04,0,.08.02.12.02.02,0,.04,0,.06,0-.04,0-.08,0-.11-.02-.02,0-.04,0-.06-.01-.14-.04-.18-.1-.18-.1l-.02-.02c-.27-.39.7-1.53.7-1.53,1.04-1.39,1.62-3.03,1.62-3.03,2-5.1-.74-9.22-.74-9.22-1.61-2.6-.82-5.7-.82-5.7.56-1.92,1.4-3.27,2.34-4.2ZM12.65,7.84c0,.53-.43.97-.97.97h-3.27v3.27c0,.53-.43.97-.97.97h-1.07c-.53,0-.97-.43-.97-.97v-3.27h-3.27c-.53,0-.97-.43-.97-.97v-1.07c0-.53.43-.97.97-.97h3.27v-3.27c0-.53.43-.97.97-.97h1.07c.53,0,.97.43.97.97v3.27h3.27c.53,0,.97.43.97.97v1.07Z"/>
      </g>
      <g>
        <g>
          <path class="cls-5" d="M68.57,8.32c0-.61-.12-1.16-.76-1.44-.99-.42-1.91.17-1.92,1.28v5.48c.03,1.14-.68,1.53-1.53,1.56-1,.04-1.53-.53-1.53-1.55,0-1.75.03-3.5,0-5.25-.03-1.67.57-3,2.1-3.72,1.61-.76,3.23-.75,4.74.32.12.09.24.18.36.26,2.2-1.4,4.22-1.45,5.91-.12.84.66,1.33,1.53,1.34,2.61.02,2.03,0,4.06,0,6.09,0,.84-.58,1.37-1.47,1.38-.93,0-1.55-.52-1.56-1.39v-5.63c0-1.16-.81-1.58-1.89-1.31-.61.22-.75.68-.75,1.26v5.4c.06,1.5-1.13,1.85-2.2,1.54-.6-.18-.86-.63-.85-1.28v-5.48Z"/>
          <path class="cls-5" d="M51.95,8.32c0-.61-.12-1.16-.76-1.44-.99-.42-1.91.17-1.92,1.28v5.48c.03,1.14-.68,1.53-1.53,1.56-1,.04-1.53-.53-1.53-1.55,0-1.75.03-3.5,0-5.25-.03-1.67.57-3,2.11-3.72,1.61-.76,3.23-.75,4.74.32.12.09.24.18.36.26,2.2-1.4,4.22-1.45,5.91-.12.84.66,1.33,1.53,1.34,2.61.02,2.03,0,4.06,0,6.09,0,.84-.58,1.37-1.47,1.38-.93,0-1.55-.52-1.56-1.39v-5.63c0-1.16-.81-1.58-1.88-1.31-.61.22-.75.68-.75,1.26v5.4c.06,1.5-1.13,1.85-2.2,1.54-.6-.18-.86-.63-.85-1.28v-5.48Z"/>
          <path class="cls-5" d="M119.52,10.71c.02,1.48.84,2.24,2.27,2.04.89-.13,1.75-.46,2.61-.73,1.16-.36,2.07.22,1.95,1.32-.05.44-.38.85-.7.99-2.08.96-4.24,1.33-6.46.51-1.68-.62-2.69-2.03-2.74-3.82-.02-.86-.02-1.72,0-2.58.05-1.81,1.07-3.26,2.8-3.84,2.12-.71,4.19-.6,6.06.71,1.22.91,1.64,2.22,1.46,3.7-.12,1.01-1.03,1.68-2.28,1.7-1.37.03-2.73.01-4.1.01h-.87ZM123.8,8.51c-.06-1.37-.73-1.95-2.18-1.93-1.41.01-2.04.59-2.07,1.93h4.25Z"/>
          <path class="cls-5" d="M36.89,10.71c.02,1.48.85,2.24,2.27,2.04.89-.13,1.75-.46,2.61-.73,1.16-.36,2.07.22,1.95,1.32-.05.44-.38.85-.7.99-2.08.96-4.24,1.33-6.46.51-1.68-.62-2.69-2.03-2.74-3.82-.02-.86-.02-1.72,0-2.58.05-1.81,1.07-3.26,2.8-3.84,2.12-.71,4.19-.6,6.06.71,1.22.91,1.64,2.22,1.46,3.7-.12,1.01-1.03,1.68-2.28,1.7-1.37.03-2.74.01-4.1.01h-.87ZM41.17,8.51c-.06-1.37-.74-1.95-2.18-1.93-1.41.01-2.04.59-2.07,1.93h4.25Z"/>
          <path class="cls-5" d="M86.37,8.12c.06-.83-.34-1.46-1.2-1.52-.96-.06-1.87.06-2.91.22-.42.07-.84.21-1.26.21-.62.01-1.07-.31-1.19-.95-.13-.66.13-1.17.79-1.36,2.07-.6,4.17-.91,6.25-.1,1.56.6,2.48,1.76,2.57,3.45.05,1.09.02,2.18-.03,3.27-.07,1.81-.98,3-2.68,3.55-1.69.54-3.4.51-5.08-.03-1.89-.61-2.74-1.98-2.48-3.89.24-1.77,1.4-2.76,3.44-2.85,1.23-.05,2.52,0,3.76,0ZM86.44,10.27c-1.18.02-2.18-.03-3.27.02-.62.03-.96.52-1.01,1.15-.05.57.2,1.03.73,1.32.8.43,1.67.41,2.43.06.43-.21.84-.6.99-1.19,0,0,.16-.56.13-1.35Z"/>
          <path class="cls-5" d="M101.76,13.8c-.01.97-.57,1.48-1.55,1.47-.99,0-1.47-.49-1.48-1.5v-5.32c-.06-1.13-.82-1.63-1.96-1.68-1.27-.05-1.92.41-2.15,1.53-.07.34-.1.7-.11,1.05v4.34c-.01.98-.54,1.52-1.48,1.53-1,.01-1.54-.53-1.55-1.54v-5.1c.09-2.29,1.14-3.71,3.36-4.15,1.15-.23,2.44-.24,3.59,0,2.2.45,3.24,1.87,3.32,4.27v5.1Z"/>
          <path class="cls-5" d="M103.81,5.71c.01-.97.56-1.48,1.53-1.47.99,0,1.47.49,1.48,1.5v5.32c.06,1.13.82,1.63,1.96,1.68,1.27.05,1.92-.41,2.16-1.53.07-.34.1-.7.1-1.05v-4.34c0-.98.54-1.52,1.48-1.53,1-.01,1.55.53,1.56,1.54v5.1c-.1,2.28-1.15,3.71-3.37,4.15-1.16.23-2.44.24-3.59,0-2.2-.45-3.23-1.87-3.32-4.27v-5.1Z"/>
          <path class="cls-5" d="M132.04,11.23c0,.69.16,1.23.77,1.61.59.37.66.95.41,1.53-.25.58-.73.88-1.4.81-1.52-.16-2.77-1.63-2.8-3.37V1.47c.01-1,.46-1.46,1.47-1.47,1.05-.01,1.55.46,1.55,1.51v9.72Z"/>
        </g>
        <text class="cls-8" transform="translate(33.81 24.46)"><tspan class="cls-11" x="0" y="0">A</tspan><tspan x="4.79" y="0">du</tspan><tspan class="cls-3" x="13.08" y="0">l</tspan><tspan x="14.9" y="0">t Medi</tspan><tspan class="cls-9" x="35.08" y="0">c</tspan><tspan x="39.05" y="0">al D</tspan><tspan class="cls-7" x="51.19" y="0">a</tspan><tspan class="cls-10" x="54.93" y="0">y Ca</tspan><tspan class="cls-2" x="69.38" y="0">r</tspan><tspan x="71.9" y="0">e Cen</tspan><tspan class="cls-1" x="90.6" y="0">t</tspan><tspan x="92.94" y="0">er</tspan></text>
      </g>
    </g>
  </g>
</svg>